<?xml version="1.0" standalone="no"?><svg data-noselect="" 
  viewBox="160.79198798293498 120.720949359722 491 368" 
  width="491" 
  height="368" 
  ref="svg_canvas" 
  preserveAspectRatio="none" 
  version="1.1" xmlns="http://www.w3.org/2000/svg" 
  style="background: rgba(255,2555,255,0);">
    <defs></defs>
    <g id="shape_HkEEaC51hC" class=""  ref="shape_HkEEaC51hC" key="shape_HkEEaC51hC" transform="translate(303.82319341357,345.30058956146) rotate(0,83.590557049525,21.352835365127) scale(1,1)" style="cursor:move;display:inline;opacity:1;" filter="">
            <g style="display:inline"><rect fill="rgba(255,2555,255,0)" width="187.18111409905" height="62.705670730254" x="-10" y="-10"></rect><svg version="1.1" id="图层_1" xmlns="http://www.w3.org/2000/svg" xmlns:xlink="http://www.w3.org/1999/xlink" x="0px" y="0px" width="167.18111409905" height="42.705670730254" viewBox="0 0 101 25.8" style="enable-background:new 0 0 101 25.8;" xml:space="preserve" preserveAspectRatio="none" data-parent="shape_HkEEaC51hC">
<style type="text/css">
	.st0{fill:#F1CAAC;}
</style>
<g>
	<path class="" d="M100.2,0c-1.1,0-2.1,0.5-2.8,1.2c-0.6,0.6-1.2,1.2-1.8,1.8c-0.5,0.4-0.9,0.9-1.4,1.3L69.6,4.3l16,3.3v1.2
		L64.6,9l14.8,2.5v1.5L58.8,13l14.1,1.9v0.9c0,0,0,0,0,0c-4.1,1-8.4,1.6-12.9,1.6c-6.6,0-12.9-1.2-18.7-3.5
		c-1.1,0.7-2.3,1.5-3.5,2.3c6.7,3.3,14.2,5.2,22.2,5.2c15.5,0,29.4-7.1,38.8-18.4c0.8-1,1.6-2,2.4-3.1H100.2z" fill="rgb(255, 102, 0)"></path>
	<path class="" d="M53.6,0h-1.3c-1.6,0-3.2,0.5-4.6,1.5C47,2,46.2,2.5,45.5,3.1c-4,2.8-7.9,5.2-11.5,7.3
		c-3.5-2.1-6.8-4.5-9.6-7.3c-0.6-0.6-1.2-1.2-1.8-1.9C21.8,0.4,20.8,0,19.7,0h-0.9c0.7,1.1,1.5,2.1,2.4,3.1c2.8,3.4,6.1,6.5,9.7,9.1
		c-12,6.5-21,8.9-23.9,5.5C4.7,15.2,6,10,10,3.1c0.6-1,1.2-2,1.9-3.1h-1.1c-1.2,0-2.3,0.6-3,1.6c-0.3,0.5-0.6,1-0.9,1.5
		C0.6,13.1-1.7,20.7,1.3,24c4,4.4,16.4,0.2,32.5-10c1-0.7,2.1-1.3,3.2-2c4-2.7,8.3-5.7,12.7-8.9C51,2.1,52.3,1.1,53.6,0z" fill="rgb(204, 0, 204)"></path>
</g>
</svg></g>
        </g><g id="shape_xO7yRTtfir" class=""  ref="shape_xO7yRTtfir" key="shape_xO7yRTtfir" transform="translate(334.29194557976,221.43563842773) rotate(0,85.778057049525,18.808757838785) scale(1,1)" style="cursor:move;display:inline;opacity:1;" filter="">
            <g style="display:inline"><rect fill="rgba(0,0,0,0)" width="191.55611409905" height="57.61751567757" x="-10" y="-10"></rect><svg version="1.1" id="图层_1" xmlns="http://www.w3.org/2000/svg" xmlns:xlink="http://www.w3.org/1999/xlink" x="0px" y="0px" width="171.55611409905" height="37.61751567757" viewBox="0 0 101.7 22.3" style="enable-background:new 0 0 101.7 22.3;" xml:space="preserve" preserveAspectRatio="none" data-parent="shape_xO7yRTtfir">
<style type="text/css">
	.st0{fill:#2D5BA8;}
</style>
<path class="" d="M100.4,1.8c-3.9-4.3-15.8-0.6-31.3,8.8c-8.2-5.7-18-9-28.6-9C24,1.6,9.3,9.7,0,22.3h1.3c1,0,2-0.4,2.7-1.1
	c1.2-1.2,2.4-2.4,3.7-3.5c0,0,0,0,0,0l24.6,0.1l-16-3.3v-1.2l21-0.1l-14.8-2.5V9.1l20.7-0.1L29.1,7.2V7.1c3.7-0.8,7.6-1.3,11.6-1.3
	c9.3,0,18,2.4,25.5,6.7l0,0l0,0c1.1,0.6,2.2,1.3,3.2,2l0,0c3,2,5.7,4.3,8.2,6.8c0.6,0.6,1.4,1,2.2,1h1.4c-2.6-3.5-5.6-6.7-8.9-9.4
	l0,0c11-5.9,19.2-7.9,22-4.7c2.1,2.4,1,7.4-2.7,14.1h2c0.9,0,1.7-0.5,2.2-1.2C101.3,11.9,103.3,4.9,100.4,1.8z" fill="rgb(255, 204, 0)"></path>
</svg></g>
        </g><g id="shape_q9VpPOvEzA" class="brand_slogan"  ref="shape_q9VpPOvEzA" key="shape_q9VpPOvEzA" transform="translate(207.191987982935,204.26057727716) rotate(0,140.16450379244,121.54000000000002) scale(1,1)" style="cursor:move;display:inline;opacity:1;" filter="">
            <g style="display:inline"><svg xmlns="http://www.w3.org/2000/svg" version="1.1" xmlns:xlink="http://www.w3.org/1999/xlink" width="465.40000000000003" height="243.08000000000004" viewBox="0 0 465.40000000000003 243.08000000000004" preserveAspectRatio="none" data-parent="shape_q9VpPOvEzA"><rect fill="rgba(0,0,0,0)" width="331" height="33" x="33.6" y="105.04000000000002"></rect><g data-width="330.426862576703" transform="translate(33.8865687116485, 0)"><path d="M11.83-21.87Q16.63-21.87 19.20-19.27Q21.77-16.67 21.77-11.76L21.77-11.76Q21.77-5.95 18.78-2.82Q15.79 0.30 10.21 0.30L10.21 0.30Q6.72 0.30 2.02 0L2.02 0L2.35-6.38L2.02-21.74L11.83-21.87ZM11.49-4.70Q13.07-4.70 13.89-5.96Q14.72-7.22 14.72-10.11L14.72-10.11Q14.72-12.57 14.38-13.98Q14.04-15.39 13.31-16.01Q12.57-16.63 11.26-16.63L11.26-16.63Q9.98-16.63 8.74-16.50L8.74-16.50L8.50-7.06L8.57-4.97Q10.58-4.70 11.49-4.70L11.49-4.70Z" transform="translate(0 131.04000000000002) " fill="rgb(0, 202, 172)" stroke="rgb(0, 0, 172)" stroke-width="0.056" data-glyph-w="22.877422661043937" data-glyph-h="40.32000000000001" data-glyph-ascender="30.240000000000006" data-glyph-descender="-10.080000000000002"></path><path d="M11.79-5.17L17.37-5.38L17.74-4.91L17.34 0L2.02 0L2.35-6.38L2.02-21.74L17.61-21.74L17.98-21.27L17.54-16.36L12.20-16.56L8.74-16.56L8.67-13.51L12.00-13.51L15.49-13.61L15.86-13.14L15.46-8.23L11.56-8.33L8.53-8.33L8.50-7.06L8.57-5.17L11.79-5.17Z" transform="translate(22.877422661043937 131.04000000000002) " fill="rgb(0, 2, 172)" stroke="rgb(9, 555, 172)" stroke-width="0.056" data-glyph-w="18.711022661043934" data-glyph-h="40.32000000000001" data-glyph-ascender="30.240000000000006" data-glyph-descender="-10.080000000000002"></path><path d="M11.79-5.17L17.37-5.38L17.74-4.91L17.34 0L2.02 0L2.35-6.38L2.02-21.74L17.61-21.74L17.98-21.27L17.54-16.36L12.20-16.56L8.74-16.56L8.67-13.51L12.00-13.51L15.49-13.61L15.86-13.14L15.46-8.23L11.56-8.33L8.53-8.33L8.50-7.06L8.57-5.17L11.79-5.17Z" transform="translate(41.58844532208787 131.04000000000002) " fill="rgb(9, 555, 172)" stroke="rgb(241, 202, 172)" stroke-width="0.056" data-glyph-w="18.711022661043934" data-glyph-h="40.32000000000001" data-glyph-ascender="30.240000000000006" data-glyph-descender="-10.080000000000002"></path><path d="M12.33-21.77Q15.99-21.77 17.96-19.98Q19.92-18.18 19.92-14.85L19.92-14.85Q19.92-12.26 18.72-10.30Q17.51-8.33 15.29-7.24Q13.07-6.15 10.18-6.15L10.18-6.15L8.53-6.15L8.77 0L2.02 0L2.35-6.38L2.02-21.74L12.33-21.77ZM11.12-10.85Q12.03-11.36 12.45-12.15Q12.87-12.94 12.87-14.18L12.87-14.18Q12.87-15.66 12.16-16.35Q11.46-17.04 9.95-17.10L9.95-17.10L8.74-17.00L8.60-10.99L11.12-10.85Z" transform="translate(60.299467983131805 131.04000000000002) " fill="rgb(241, 9, 172)" stroke="rgb(241, 9, 172)" stroke-width="0.056" data-glyph-w="20.458222661043933" data-glyph-h="40.32000000000001" data-glyph-ascender="30.240000000000006" data-glyph-descender="-10.080000000000002"></path><path d="" transform="translate(80.75769064417574 131.04000000000002) " fill="rgb(102, 3, 172)" stroke="rgb(241, 0S, 172)" stroke-width="0.056" data-glyph-w="13.906222661043934" data-glyph-h="33.6" data-glyph-ascender="29.568000000000005" data-glyph-descender="-4.032000000000001"></path><path d="M10.25-22.14Q13.44-22.14 16.56-20.97L16.56-20.97L15.49-15.49L14.55-15.09Q13.14-15.96 11.76-16.46Q10.38-16.97 9.54-16.97L9.54-16.97Q8.77-16.97 8.32-16.67Q7.86-16.36 7.86-15.86L7.86-15.86Q7.86-15.22 8.55-14.77Q9.24-14.31 10.85-13.57L10.85-13.57Q12.73-12.73 13.94-12.01Q15.15-11.29 16.06-10.03Q16.97-8.77 16.97-6.92L16.97-6.92Q16.97-4.87 15.84-3.21Q14.72-1.55 12.63-0.57Q10.55 0.40 7.80 0.40L7.80 0.40Q4.37 0.40 0.60-0.87L0.60-0.87L1.58-6.72L2.25-7.12Q3.80-5.95 5.56-5.26Q7.32-4.57 8.50-4.57L8.50-4.57Q9.44-4.57 9.86-4.89Q10.28-5.21 10.28-5.68L10.28-5.68Q10.28-6.38 9.56-6.87Q8.84-7.36 7.22-8.06L7.22-8.06Q5.38-8.87 4.18-9.59Q2.99-10.32 2.12-11.58Q1.24-12.84 1.24-14.68L1.24-14.68Q1.24-16.80 2.39-18.50Q3.53-20.19 5.58-21.17Q7.63-22.14 10.25-22.14L10.25-22.14Z" transform="translate(94.66391330521967 131.04000000000002) " fill="rgb(241, 202, 1)" stroke="rgb(241, 202, 172)" stroke-width="0.056" data-glyph-w="18.274222661043936" data-glyph-h="40.32000000000001" data-glyph-ascender="30.240000000000006" data-glyph-descender="-10.080000000000002"></path><path d="M22.14-21.74L21.77-7.06L22.04 0L15.29 0L15.62-6.38L15.59-8.06L11.96-8.13L8.84-8.03L8.80-7.06L9.07 0L2.32 0L2.65-6.38L2.32-21.74L9.17-21.74L8.97-13.51L12.36-13.44L15.46-13.51L15.29-21.74L22.14-21.74Z" transform="translate(112.9381359662636 131.04000000000002) " fill="rgb(241, 555, 172)" stroke="rgb(241, 202, 172)" stroke-width="0.056" data-glyph-w="24.423022661043937" data-glyph-h="40.32000000000001" data-glyph-ascender="30.240000000000006" data-glyph-descender="-10.080000000000002"></path><path d="M14.78-21.74L20.73 0L13.91 0L13.31-3.60L13.27-3.70L9.98-3.76L7.22-3.63L6.65 0L0.07 0L6.65-21.74L14.78-21.74ZM10.38-8.57L12.26-8.60L10.79-15.72L10.38-15.72L8.50-8.60L10.38-8.57Z" transform="translate(137.36115862730753 131.04000000000002) " fill="rgb(0, 202, 0)" stroke="rgb(241, 202, 172)" stroke-width="0.056" data-glyph-w="21.600622661043936" data-glyph-h="40.32000000000001" data-glyph-ascender="30.240000000000006" data-glyph-descender="-10.080000000000002"></path><path d="M11.83-21.87Q16.63-21.87 19.20-19.27Q21.77-16.67 21.77-11.76L21.77-11.76Q21.77-5.95 18.78-2.82Q15.79 0.30 10.21 0.30L10.21 0.30Q6.72 0.30 2.02 0L2.02 0L2.35-6.38L2.02-21.74L11.83-21.87ZM11.49-4.70Q13.07-4.70 13.89-5.96Q14.72-7.22 14.72-10.11L14.72-10.11Q14.72-12.57 14.38-13.98Q14.04-15.39 13.31-16.01Q12.57-16.63 11.26-16.63L11.26-16.63Q9.98-16.63 8.74-16.50L8.74-16.50L8.50-7.06L8.57-4.97Q10.58-4.70 11.49-4.70L11.49-4.70Z" transform="translate(158.96178128835146 131.04000000000002) " fill="rgb(0, 0, 1)" stroke="rgb(241, 202, 172)" stroke-width="0.056" data-glyph-w="22.877422661043937" data-glyph-h="40.32000000000001" data-glyph-ascender="30.240000000000006" data-glyph-descender="-10.080000000000002"></path><path d="M11.46-22.14Q16.20-22.14 18.78-19.34Q21.37-16.53 21.37-11.42L21.37-11.42Q21.37-5.78 18.53-2.69Q15.69 0.40 10.48 0.40L10.48 0.40Q5.75 0.40 3.16-2.44Q0.57-5.28 0.57-10.48L0.57-10.48Q0.57-16.06 3.41-19.10Q6.25-22.14 11.46-22.14L11.46-22.14ZM10.85-16.77Q9.54-16.77 8.87-16.31Q8.20-15.86 7.91-14.72Q7.63-13.57 7.63-11.39L7.63-11.39Q7.63-8.60 7.93-7.16Q8.23-5.71 8.95-5.14Q9.68-4.57 11.09-4.57L11.09-4.57Q12.40-4.57 13.07-5.02Q13.74-5.48 14.03-6.64Q14.31-7.80 14.31-9.98L14.31-9.98Q14.31-12.73 14.01-14.18Q13.71-15.62 12.99-16.20Q12.26-16.77 10.85-16.77L10.85-16.77Z" transform="translate(181.8392039493954 131.04000000000002) " fill="rgb(241, 202, 91)" stroke="rgb(241, 202, 172)" stroke-width="0.056" data-glyph-w="22.474222661043935" data-glyph-h="40.32000000000001" data-glyph-ascender="30.240000000000006" data-glyph-descender="-10.080000000000002"></path><path d="M30.71-21.74L24.29 0L17.17 0L15.12-7.86L14.72-7.86L12.84 0L5.68 0L0.57-21.74L7.09-21.74L7.43-18.38L9.54-6.75L9.95-6.75L12.47-16.67L11.32-21.74L18.11-21.74L18.58-17.71L20.87-6.75L21.27-6.75L23.92-17.98L24.53-21.74L30.71-21.74Z" transform="translate(204.31342661043934 131.04000000000002) " fill="rgb(206, 0, 102)" stroke="rgb(241, 202, 172)" stroke-width="0.056" data-glyph-w="31.243822661043936" data-glyph-h="40.32000000000001" data-glyph-ascender="30.240000000000006" data-glyph-descender="-10.080000000000002"></path><path d="" transform="translate(235.55724927148327 131.04000000000002) " fill="rgb(241, 202, 172)" stroke="rgb(241, 202, 172)" stroke-width="0.056" data-glyph-w="13.906222661043934" data-glyph-h="33.6" data-glyph-ascender="29.568000000000005" data-glyph-descender="-4.032000000000001"></path><path d="M12.84-22.11Q16.46-22.11 19.12-21.10L19.12-21.10L17.67-15.15L17.14-15.15Q15.46-15.99 14.23-16.36Q13.00-16.73 11.56-16.73L11.56-16.73Q10.01-16.73 9.19-16.23Q8.37-15.72 8.00-14.45Q7.63-13.17 7.63-10.75L7.63-10.75Q7.63-8.30 8.00-7.01Q8.37-5.71 9.26-5.19Q10.15-4.67 11.83-4.67L11.83-4.67Q12.30-4.67 13.04-4.80L13.04-4.80L13.04-5.88L12.94-9.54L19.08-9.98L18.98-7.02L18.98-1.08Q15.09 0.40 11.22 0.40L11.22 0.40Q5.95 0.40 3.26-2.40Q0.57-5.21 0.57-10.42L0.57-10.42Q0.57-16.13 3.75-19.12Q6.92-22.11 12.84-22.11L12.84-22.11Z" transform="translate(249.4634719325272 131.04000000000002) " fill="rgb(241, 202, 172)" stroke="rgb(241, 202, 172)" stroke-width="0.056" data-glyph-w="20.559022661043937" data-glyph-h="40.32000000000001" data-glyph-ascender="30.240000000000006" data-glyph-descender="-10.080000000000002"></path><path d="M16.33-8.57Q18.75-4.80 21.17-1.58L21.17-1.58L21.07-0.84Q17.64 0.20 14.31 0.40L14.31 0.40L13.68-0.13L13.27-0.97Q13.00-1.51 12.20-3.24Q11.39-4.97 10.79-6.48L10.79-6.48L8.53-6.48L8.77 0L2.02 0L2.35-6.38L2.02-21.74L12.33-21.77Q15.99-21.77 17.98-20.04Q19.96-18.31 19.96-15.05L19.96-15.05Q19.96-13.14 19.00-11.46Q18.04-9.78 16.33-8.57L16.33-8.57ZM12.87-14.38Q12.87-15.72 12.18-16.38Q11.49-17.04 9.95-17.10L9.95-17.10L8.74-17.00L8.60-11.39L11.05-11.26Q12.00-11.69 12.43-12.43Q12.87-13.17 12.87-14.38L12.87-14.38Z" transform="translate(270.02249459357114 131.04000000000002) " fill="rgb(241, 202, 172)" stroke="rgb(241, 202, 172)" stroke-width="0.056" data-glyph-w="21.735022661043935" data-glyph-h="40.32000000000001" data-glyph-ascender="30.240000000000006" data-glyph-descender="-10.080000000000002"></path><path d="M11.79-5.17L17.37-5.38L17.74-4.91L17.34 0L2.02 0L2.35-6.38L2.02-21.74L17.61-21.74L17.98-21.27L17.54-16.36L12.20-16.56L8.74-16.56L8.67-13.51L12.00-13.51L15.49-13.61L15.86-13.14L15.46-8.23L11.56-8.33L8.53-8.33L8.50-7.06L8.57-5.17L11.79-5.17Z" transform="translate(291.7575172546151 131.04000000000002) " fill="rgb(241, 202, 172)" stroke="rgb(241, 202, 172)" stroke-width="0.056" data-glyph-w="18.711022661043934" data-glyph-h="40.32000000000001" data-glyph-ascender="30.240000000000006" data-glyph-descender="-10.080000000000002"></path><path d="M12.90-6.99L12.84-5.71L13.10 0L6.38 0L6.72-5.71L6.69-6.75L-0.27-21.74L6.79-21.74L7.32-19.92L9.78-13.37L10.18-13.37L13.00-19.69L13.78-21.74L20.63-21.74L12.90-6.99Z" transform="translate(310.46853991565905 131.04000000000002) " fill="rgb(241, 202, 172)" stroke="rgb(241, 202, 172)" stroke-width="0.056" data-glyph-w="20.491822661043937" data-glyph-h="40.32000000000001" data-glyph-ascender="30.240000000000006" data-glyph-descender="-10.080000000000002"></path></g></svg></g>
        </g><g id="shape_tc2VIEPU6p" class="brand_name"  ref="shape_tc2VIEPU6p" key="shape_tc2VIEPU6p" transform="translate(219.341997275405,89.43143028458996) rotate(0,170.11377591029,196.57169828979605) scale(1,1)" style="cursor:move;display:inline;opacity:1;" filter="">
            <g style="display:inline"><svg xmlns="http://www.w3.org/2000/svg" version="1.1" xmlns:xlink="http://www.w3.org/1999/xlink" width="485.8" height="392.8221000000001" viewBox="0 0 485.8 392.8221000000001" preserveAspectRatio="none" data-parent="shape_tc2VIEPU6p"><rect fill="rgba(0,0,0,0)" width="262" height="55" x="55.95" y="168.91105000000005"></rect><g data-width="261.846" transform="translate(56.027, 0)"><path d="M8.90-40.45L14.10-27.86L10.29-27.86L14.10-18.58L6.38-18.58L1.17-31.22L4.98-31.22L1.17-40.45L8.90-40.45ZM1.17 0.11L6.38-15.95L14.10-15.95L8.90 0.11L1.17 0.11ZM50.30-34.35L50.30-31.95L42.86-31.95L42.86-33.68Q42.86-34.19 42.49-34.58Q42.13-34.97 41.63-34.97L41.63-34.97L22.88-34.97L22.88-31.95L15.44-31.95L15.44-34.97L15.44-40.45L22.88-40.45L44.14-40.45Q45.38-40.45 46.49-39.98Q47.61-39.50 48.45-38.66Q49.29-37.82 49.80-36.70Q50.30-35.58 50.30-34.35L50.30-34.35ZM23.33-30.66L31.95-30.66L25.23-22.44L16.62-22.44L23.33-30.66ZM49.24-22.44L40.62-22.44L33.91-30.66L42.58-30.66L49.24-22.44ZM50.30-19.02L50.30-13.48L36.76-13.48L36.76-0.11L28.98-0.11L28.98-13.48L15.44-13.48L15.44-19.02L28.98-19.02L28.98-20.98L36.76-20.98L36.76-19.02L50.30-19.02ZM18.97-11.69L26.74-11.69L23.22-0.11L15.44-0.11L18.97-11.69ZM46.77-11.69L50.30-0.11L42.52-0.11L39.05-11.69L46.77-11.69Z" transform="translate(0 215.91105000000005) " fill="rgb(0, 0, 172)" stroke="rgb(241, 202, 172)" stroke-width="0.093" data-glyph-w="51.474000000000004" data-glyph-h="55.95000000000001" data-glyph-ascender="48.06105000000001" data-glyph-descender="-7.888950000000001"></path><path d="M8.90 0.11L1.17 0.11L6.38-15.83L14.10-15.83L8.90 0.11ZM6.38-18.52L1.17-31.11L4.98-31.11L1.17-40.40L8.90-40.40L14.10-27.75L10.29-27.75L14.10-18.52L6.38-18.52ZM50.30-34.13L50.30-28.93L42.52-28.93L42.52-33.01Q42.52-33.74 42.02-34.24Q41.51-34.74 40.79-34.74L40.79-34.74L22.77-34.74L22.77-28.93L15.05-28.93L15.05-40.28L44.14-40.28Q45.43-40.28 46.55-39.81Q47.67-39.33 48.51-38.49Q49.35-37.65 49.82-36.54Q50.30-35.42 50.30-34.13L50.30-34.13ZM49.07 0.11L44.42 0.11Q43.14 0.11 42.05-0.36Q40.96-0.84 40.12-1.68Q39.28-2.52 38.80-3.64Q38.33-4.76 38.33-6.04L38.33-6.04L38.33-20.48L26.63-20.48L26.63-9.18L24.39 0.11L16.28 0.11L18.52-9.18L18.52-25.90L18.80-25.90L26.63-25.90L38.33-25.90L46.05-25.90L46.05-20.48L46.05-7.22Q46.05-6.43 46.55-5.93Q47.05-5.43 47.84-5.43L47.84-5.43L50.30-5.43L49.07 0.11Z" transform="translate(51.474000000000004 215.91105000000005) " fill="rgb(0, 0, 172)" stroke="rgb(241, 202, 172)" stroke-width="0.093" data-glyph-w="51.474000000000004" data-glyph-h="55.95000000000001" data-glyph-ascender="48.06105000000001" data-glyph-descender="-7.888950000000001"></path><path d="M26.24-24.51L21.43-24.51L21.43-23.28L32.28-23.28L32.28-19.19L3.02-19.19L3.02-23.28L13.82-23.28L13.82-24.51L3.80-24.51L3.80-40.40L31.56-40.40L31.56-29.77Q31.56-28.76 31.11-27.70L31.11-27.70Q30.66-26.69 29.99-26.02L29.99-26.02Q29.26-25.29 28.25-24.95L28.25-24.95Q27.36-24.51 26.24-24.51L26.24-24.51ZM10.13 0.06L11.41-4.08Q11.53-4.08 11.83-4.11Q12.14-4.14 12.50-4.17Q12.87-4.20 13.15-4.25Q13.43-4.31 13.54-4.36L13.54-4.36Q13.82-4.81 13.82-5.15L13.82-5.15L13.82-8.11L3.75-8.11L3.75-16.95L3.80-16.95L3.80-18.24L31.56-18.24L31.56-13.37Q31.56-12.87 31.42-12.34Q31.28-11.81 31.11-11.36L31.11-11.36Q30.88-10.85 30.60-10.43Q30.32-10.02 29.99-9.68L29.99-9.68Q29.26-9.01 28.25-8.56L28.25-8.56Q27.36-8.11 26.24-8.11L26.24-8.11L21.43-8.11L21.43-6.10Q21.43-4.64 20.98-3.64L20.98-3.64Q20.53-2.52 19.64-1.73L19.64-1.73Q18.91-1.01 17.68-0.39L17.68-0.39Q16.56 0.06 15.27 0.06L15.27 0.06L10.13 0.06ZM33.18-13.43L43.70-26.91L52.93-26.91L42.24-13.43L33.18-13.43ZM33.18-26.97L43.70-40.40L52.93-40.40L42.24-26.97L33.18-26.97ZM33.18-0.06L43.70-13.43L52.93-13.43L42.24-0.06L33.18-0.06ZM29.65-6.77L31.56 0.06L25.96 0.06L24.17-6.77L29.65-6.77ZM10.41-6.77L8.50 0.06L3.02 0.06L4.87-6.77L10.41-6.77ZM11.36-14.04L11.36-11.75L23.11-11.75Q23.44-11.75 23.67-12.03L23.67-12.03Q23.95-12.25 23.95-12.59L23.95-12.59L23.95-14.04L11.36-14.04ZM11.41-30.27L11.41-28.65L23.11-28.65Q23.39-28.65 23.67-28.93L23.67-28.93Q23.95-29.09 23.95-29.54L23.95-29.54L23.95-30.27L11.41-30.27ZM11.41-35.70L11.41-34.35L23.95-34.35L23.95-35.70L11.41-35.70Z" transform="translate(102.94800000000001 215.91105000000005) " fill="rgb(0, 0, 0)" stroke="rgb(241, 202, 172)" stroke-width="0.093" data-glyph-w="55.95000000000001" data-glyph-h="55.95000000000001" data-glyph-ascender="48.06105000000001" data-glyph-descender="-7.888950000000001"></path><path d="M46.21-35.86L34.86-23.72L50.19-23.72L50.19-17.96L32.06-17.96L32.06-5.04Q32.06-2.97 30.60-1.51Q29.15-0.06 27.08-0.06L27.08-0.06L15.11-0.06L16.79-4.64L23.28-4.64Q23.78-4.64 24.17-5.04Q24.56-5.43 24.51-5.93L24.51-5.93L24.51-17.96L1.23-17.96L1.23-23.72L25.35-23.72L35.36-34.47L4.98-34.47L4.98-40.23L40.73-40.23L46.21-40.23L46.21-35.86Z" transform="translate(158.89800000000002 215.91105000000005) " fill="rgb(0, 0, 0)" stroke="rgb(241, 202, 172)" stroke-width="0.093" data-glyph-w="51.474000000000004" data-glyph-h="55.95000000000001" data-glyph-ascender="48.06105000000001" data-glyph-descender="-7.888950000000001"></path><path d="M22.60 0L12.98 0L27.81-14.16L27.81-29.32L35.47-29.32L35.47-14.16L50.30 0L40.68 0L31.61-8.90L22.60 0ZM40.73-28.37L47.67-28.37L45.99-11.86L39.05-11.86L40.73-28.37ZM21.04-28.37L22.66-11.86L15.72-11.86L14.04-28.37L21.04-28.37ZM11.02-40.34L11.02-37.60L50.30-37.60L50.30-32.06L11.02-32.06L11.02-6.04L8.28 0.06L1.17 0.06L3.86-6.04L3.86-32.06L1.17-32.06L1.17-37.60L3.86-37.60L3.86-40.34L11.02-40.34Z" transform="translate(210.372 215.91105000000005) " fill="rgb(0, 0, 0)" stroke="rgb(241, 202, 172)" stroke-width="0.093" data-glyph-w="51.474000000000004" data-glyph-h="55.95000000000001" data-glyph-ascender="48.06105000000001" data-glyph-descender="-7.888950000000001"></path></g></svg></g>
        </g>
  </svg>