<?xml version="1.0" standalone="no"?><svg data-noselect="" 
  viewBox="139.981730547095 144.6107036899 402 301.50641062696" 
  width="402" 
  height="301.50641062696" 
  ref="svg_canvas" 
  preserveAspectRatio="none" 
  version="1.1" xmlns="http://www.w3.org/2000/svg" 
  style="background: #ffffff;">
    <defs></defs>
    <g id="shape_HjK7BW4eN3" class="brand_name"  ref="shape_HjK7BW4eN3" key="shape_HjK7BW4eN3" transform="translate(223.03579754777002,34.24308171554998) rotate(0,214.80461031578,254.06262627367204) scale(1,1)" style="cursor:move;display:inline;opacity:1;" filter="">
            <g style="display:inline"><svg xmlns="http://www.w3.org/2000/svg" version="1.1" xmlns:xlink="http://www.w3.org/1999/xlink" width="348.72" height="508.08000000000004" viewBox="0 0 348.72 508.08000000000004" preserveAspectRatio="none" data-parent="shape_HjK7BW4eN3"><rect fill="rgba(0,0,0,0)" width="66" height="84" x="70.68" y="212.04000000000002"></rect><g data-width="65.02560000000001" transform="translate(70.68, 0)"><path d="M27.35 0L27.35-7.70L1.41-7.70L1.41-14.70L27.35-14.70L27.35-18.73L2.97-18.73L2.97-46.15L11.80-46.15L9.82-50.89L19.93-50.89L21.91-46.15L44.74-46.15L46.72-50.89L56.90-50.89L54.92-46.15L61.92-46.15L61.92-26.51Q61.92-24.88 61.31-23.47Q60.71-22.05 59.65-20.99Q58.59-19.93 57.18-19.33Q55.77-18.73 54.21-18.73L54.21-18.73L37.60-18.73L37.60-14.70L63.54-14.70L63.54-7.70L37.60-7.70L37.60 0L27.35 0ZM37.60-24.17L49.90-24.17Q50.89-24.17 51.53-24.81Q52.16-25.44 52.16-26.36L52.16-26.36L52.16-28.98L37.60-28.98L37.60-24.17ZM37.60-40.71L37.60-35.98L52.16-35.98L52.16-40.71L37.60-40.71ZM27.35-35.98L27.35-40.71L12.79-40.71L12.79-35.98L27.35-35.98ZM12.79-24.17L27.35-24.17L27.35-28.98L12.79-28.98L12.79-24.17Z" transform="translate(0 279.04) " fill="#333333" stroke="#333333" stroke-width="0.118" data-glyph-w="65.02560000000001" data-glyph-h="70.68" data-glyph-ascender="60.71412000000001" data-glyph-descender="-9.96588"></path></g></svg></g>
        </g><g id="shape_vfwnhFAijw" class=""  ref="shape_vfwnhFAijw" key="shape_vfwnhFAijw" transform="translate(260,224.6107036899) rotate(0,73.695347618599,70.75320531348) scale(1,1)" style="cursor:move;display:inline;opacity:1;" filter="">
            <g style="display:inline"><rect fill="rgba(0,0,0,0)" width="167.39069523719832" height="161.50641062695908" x="-10" y="-10"></rect><svg version="1.1" id="图层_1" xmlns="http://www.w3.org/2000/svg" xmlns:xlink="http://www.w3.org/1999/xlink" x="0px" y="0px" viewBox="0 0 207.9 199.6" style="enable-background:new 0 0 207.9 199.6;" xml:space="preserve" width="147.39069523719832" height="141.50641062695908" class="style-removed" preserveAspectRatio="none" data-parent="shape_vfwnhFAijw">

<g>
	<path d="M163.7,153.4c-17.1,20-42.4,32.6-70.7,32.6c-51.4,0-93-41.6-93-93C0,41.6,41.6,0,93,0
		c17.8,0,34.5,5,48.7,13.8c2,1.2,3.9,2.5,5.7,3.8c2.7,1.9,5.2,4,7.7,6.2c-0.2,0-0.5,0.1-0.7,0.1c-0.3,0.1-0.6,0.1-1,0.2
		c-2.8-1.9-5.6-3.7-8.6-5.3c-2.2-1.2-4.4-2.2-6.7-3.2C128,11.2,116.8,8.8,105,8.8C58.5,8.8,20.8,46.5,20.8,93
		c0,46.5,37.7,84.2,84.2,84.2C127.9,177.2,148.6,168.1,163.7,153.4z" fill="#0057BF" stroke-width="0"></path>
	<g>
		<path d="M176.6,60.2c9.3-12.6,12.7-24,8.2-31c-4.4-6.7-15.3-8.3-29.7-5.5c0,0,0,0,0,0c-0.2,0-0.5,0.1-0.7,0.1
			c-0.3,0.1-0.6,0.1-1,0.2c-15.7,3.4-35.3,11.9-54.8,24.6C90,54.3,82.2,60.2,75.3,66.3c9.5-13,25.1-27.3,44.5-40
			c6.2-4,12.3-7.6,18.4-10.7c0.6-0.3,1.1-0.6,1.6-0.9c0.6-0.3,1.3-0.7,1.9-1c0.2-0.1,0.4-0.2,0.7-0.3c29.9-14.6,56.1-18,63.5-6.6
			C213.1,17.8,200.5,39.4,176.6,60.2z" fill="#1BBCF3" stroke-width="0"></path>
	</g>
	<g>
		<path d="M29.7,136.9c-8.8,13.6-11.8,25.4-6.6,32.4c10.3,14.1,49.6,2.9,87.6-25c8.5-6.3,16.3-12.8,23.1-19.4
			c-9.1,13.9-24.3,29.6-43.6,43.7c-38.1,27.9-77.3,39.1-87.6,25C-5.5,182.6,6.2,159.6,29.7,136.9z" fill="#1BBCF3" stroke-width="0"></path>
	</g>
</g>
</svg></g>
        </g><g id="shape_VJib5A4oNr" class="brand_slogan"  ref="shape_VJib5A4oNr" key="shape_VJib5A4oNr" transform="translate(341.54346109419,267.18833098672) rotate(0,96.296946769352,63.14000327617501) scale(1,1)" style="cursor:move;display:inline;opacity:1;" filter="">
            <g style="display:inline"><svg xmlns="http://www.w3.org/2000/svg" version="1.1" xmlns:xlink="http://www.w3.org/1999/xlink" width="132.68" height="125.68768" viewBox="0 0 132.68 125.68768" preserveAspectRatio="none" data-parent="shape_VJib5A4oNr"><rect fill="rgba(0,0,0,0)" width="63" height="20" x="17.42" y="52.84384000000001"></rect><g data-width="62.154560000000004" transform="translate(17.42, 0)"><path d="M0.71-3.73L2.60-3.73Q2.75-2.65 3.51-2.04Q4.27-1.43 5.52-1.43L5.52-1.43Q6.67-1.43 7.30-1.92Q7.93-2.42 7.93-3.21L7.93-3.21Q7.93-4.49 6.11-4.98L6.11-4.98L3.92-5.52Q2.37-5.89 1.60-6.73Q0.84-7.58 0.84-8.85L0.84-8.85Q0.84-9.65 1.15-10.30Q1.46-10.96 2.01-11.42Q2.56-11.88 3.31-12.13Q4.06-12.39 4.95-12.39L4.95-12.39Q5.89-12.39 6.68-12.11Q7.47-11.83 8.07-11.32Q8.66-10.82 9.04-10.10Q9.42-9.39 9.53-8.54L9.53-8.54L7.65-8.54Q7.46-9.58 6.77-10.17Q6.08-10.77 4.93-10.77L4.93-10.77Q3.99-10.77 3.36-10.30Q2.73-9.82 2.73-9.01L2.73-9.01Q2.73-8.34 3.17-7.92Q3.61-7.49 4.44-7.28L4.44-7.28L6.65-6.72Q8.31-6.31 9.07-5.50Q9.82-4.69 9.82-3.38L9.82-3.38Q9.82-2.61 9.52-1.96Q9.22-1.31 8.65-0.84Q8.08-0.37 7.29-0.10Q6.50 0.17 5.52 0.17L5.52 0.17Q4.53 0.17 3.68-0.10Q2.84-0.38 2.21-0.90Q1.59-1.41 1.19-2.13Q0.80-2.86 0.71-3.73L0.71-3.73Z" transform="translate(0 68.84384) " fill="#333333" stroke="#333333" stroke-width="0.029" data-glyph-w="10.661040000000002" data-glyph-h="20.78206" data-glyph-ascender="16.583840000000002" data-glyph-descender="-4.19822"></path><path d="M3.40 0L1.48 0L1.48-12.19L3.40-12.19L3.40 0Z" transform="translate(10.661040000000002 68.84384) " fill="#333333" stroke="#333333" stroke-width="0.029" data-glyph-w="4.860180000000001" data-glyph-h="20.78206" data-glyph-ascender="16.583840000000002" data-glyph-descender="-4.19822"></path><path d="M3.26 0L1.48 0L1.48-12.19L3.54-12.19L9.86-2.73L9.86-12.19L11.65-12.19L11.65 0L9.58 0L3.26-9.49L3.26 0Z" transform="translate(15.521220000000003 68.84384) " fill="#333333" stroke="#333333" stroke-width="0.029" data-glyph-w="13.117260000000002" data-glyph-h="20.78206" data-glyph-ascender="16.583840000000002" data-glyph-descender="-4.19822"></path><path d="M1.01-5.49L1.01-6.76Q1.01-8.03 1.39-9.07Q1.78-10.10 2.48-10.84Q3.19-11.58 4.17-11.99Q5.16-12.40 6.34-12.40L6.34-12.40Q8.17-12.40 9.48-11.56Q10.78-10.71 11.43-9.18L11.43-9.18L9.76-8.40Q9.30-9.46 8.41-10.05Q7.53-10.64 6.41-10.64L6.41-10.64Q4.83-10.64 3.88-9.60Q2.94-8.55 2.94-6.71L2.94-6.71L2.94-5.49Q2.94-4.55 3.20-3.81Q3.45-3.07 3.91-2.55Q4.37-2.04 5.01-1.77Q5.64-1.50 6.43-1.50L6.43-1.50Q7.16-1.50 7.76-1.72Q8.36-1.95 8.80-2.35Q9.23-2.75 9.48-3.31Q9.72-3.87 9.72-4.53L9.72-4.53L9.72-4.91L6.31-4.91L6.31-6.52L11.53-6.52L11.53 0L9.72 0L9.72-1.86Q9.11-0.84 8.14-0.32Q7.16 0.19 6.10 0.19L6.10 0.19Q4.95 0.19 4.02-0.22Q3.08-0.63 2.41-1.38Q1.74-2.13 1.38-3.17Q1.01-4.22 1.01-5.49L1.01-5.49Z" transform="translate(28.638480000000005 68.84384) " fill="#333333" stroke="#333333" stroke-width="0.029" data-glyph-w="12.8908" data-glyph-h="20.78206" data-glyph-ascender="16.583840000000002" data-glyph-descender="-4.19822"></path><path d="M9.51-1.67L9.51 0L1.48 0L1.48-12.19L3.40-12.19L3.40-1.67L9.51-1.67Z" transform="translate(41.52928000000001 68.84384) " fill="#333333" stroke="#333333" stroke-width="0.029" data-glyph-w="10.15586" data-glyph-h="20.78206" data-glyph-ascender="16.583840000000002" data-glyph-descender="-4.19822"></path><path d="M1.48 0L1.48-12.19L9.51-12.19L9.51-10.52L3.40-10.52L3.40-6.93L9.34-6.93L9.34-5.28L3.40-5.28L3.40-1.67L9.51-1.67L9.51 0L1.48 0Z" transform="translate(51.685140000000004 68.84384) " fill="#333333" stroke="#333333" stroke-width="0.029" data-glyph-w="10.469420000000001" data-glyph-h="20.78206" data-glyph-ascender="16.583840000000002" data-glyph-descender="-4.19822"></path></g></svg></g>
        </g>
  </svg>